<svg width="128" height="128" viewBox="0 0 128 128" fill="none" xmlns="http://www.w3.org/2000/svg">
<rect width="128" height="128" rx="48" fill="black"/>
<path d="M97 50.044C100.536 51.18 103 54.556 103 58.432V75.576C103 80.12 99.612 83.976 95.08 84.348C93.72 84.456 92.36 84.556 91 84.636V97L79 85C73.584 85 68.224 84.78 62.92 84.348C61.7653 84.2547 60.6421 83.9252 59.62 83.38M97 50.044C96.3819 49.8451 95.7431 49.7176 95.096 49.664C84.3838 48.7747 73.6162 48.7747 62.904 49.664C58.38 50.04 55 53.892 55 58.432V75.576C55 78.924 56.84 81.896 59.62 83.38M97 50.044V42.548C97 36.064 92.392 30.444 85.96 29.608C77.6833 28.5352 69.3459 27.9981 61 28C52.54 28 44.208 28.548 36.04 29.608C29.608 30.444 25 36.064 25 42.548V67.452C25 73.936 29.608 79.556 36.04 80.392C38.348 80.692 40.668 80.952 43 81.168V100L59.62 83.38" stroke="url(#paint0_linear_2_2)" stroke-width="4.5" stroke-linecap="round" stroke-linejoin="round"/>
<defs>
<linearGradient id="paint0_linear_2_2" x1="64" y1="28" x2="97" y2="100" gradientUnits="userSpaceOnUse">
<stop stop-color="white"/>
<stop offset="1" stop-color="white" stop-opacity="0"/>
</linearGradient>
</defs>
</svg>
